<?xml version="1.0" encoding="UTF-8"?>
<svg version="1.1" xmlns="http://www.w3.org/2000/svg" width="587" height="585">
<path d="M0 0 C193.71 0 387.42 0 587 0 C587 193.05 587 386.1 587 585 C393.29 585 199.58 585 0 585 C0 391.95 0 198.9 0 0 Z " fill="#FEFEFE" transform="translate(0,0)"/>
<path d="M0 0 C3.1047294 0.02118491 6.20872452 0.05901308 9.31298828 0.11694336 C10.85112248 0.13522783 12.38991968 0.10411624 13.92724609 0.05102539 C21.62703613 0.15507661 29.42865904 5.49520029 35.32568359 10.14086914 C37.16984829 12.05333624 38.70949829 14.01764531 40.32568359 16.14086914 C41.08880859 17.08961914 41.85193359 18.03836914 42.63818359 19.01586914 C45.91998759 24.80186092 44.60270727 32.7308491 44.32568359 39.14086914 C43.66568359 39.14086914 43.00568359 39.14086914 42.32568359 39.14086914 C42.08720703 39.87821289 41.84873047 40.61555664 41.60302734 41.37524414 C40.13656451 44.55033799 38.52748755 46.11994094 35.88818359 48.39086914 C35.10572266 49.07665039 34.32326172 49.76243164 33.51708984 50.46899414 C29.37298693 53.63062702 25.24413972 53.29229331 20.26318359 53.26586914 C19.53035156 53.26973633 18.79751953 53.27360352 18.04248047 53.27758789 C12.57905341 53.26755405 12.57905341 53.26755405 10.32568359 52.14086914 C10.32568359 51.48086914 10.32568359 50.82086914 10.32568359 50.14086914 C9.70693359 50.03774414 9.08818359 49.93461914 8.45068359 49.82836914 C6.32568359 49.14086914 6.32568359 49.14086914 4.32568359 46.14086914 C4.70499906 43.10634542 5.5760904 41.76525893 7.32568359 39.14086914 C7.98568359 39.14086914 8.64568359 39.14086914 9.32568359 39.14086914 C10.35868526 34.89408453 10.45928819 30.87840186 10.45068359 26.51586914 C10.45326172 25.20360352 10.45583984 23.89133789 10.45849609 22.53930664 C10.4843522 19.15197521 10.4843522 19.15197521 9.32568359 16.14086914 C4.16779062 12.60369024 -3.02146397 13.55641275 -8.92041016 14.50024414 C-20.28272897 17.8837918 -27.14044892 30.45367616 -32.67431641 40.14086914 C-34.66720159 44.69028381 -36.15161784 49.41722896 -37.67431641 54.14086914 C-38.04556641 55.27524414 -38.41681641 56.40961914 -38.79931641 57.57836914 C-39.91994203 62.14091633 -40.41540669 66.45235182 -40.67431641 71.14086914 C-40.74924316 72.22005615 -40.74924316 72.22005615 -40.82568359 73.32104492 C-41.58660592 85.31889974 -41.38480623 95.34240597 -33.67431641 105.14086914 C-30.53661363 107.7452105 -27.39973668 109.51840805 -23.67431641 111.14086914 C-23.04912109 111.50954102 -22.42392578 111.87821289 -21.77978516 112.25805664 C-14.07007779 115.49069832 -3.95016961 113.31351203 3.57177734 110.46899414 C10.97558361 106.89836417 16.26546883 101.49857487 21.32568359 95.14086914 C23.30568359 96.13086914 23.30568359 96.13086914 25.32568359 97.14086914 C24.99568359 101.43086914 24.66568359 105.72086914 24.32568359 110.14086914 C23.66568359 110.14086914 23.00568359 110.14086914 22.32568359 110.14086914 C22.22642578 110.86274414 22.12716797 111.58461914 22.02490234 112.32836914 C20.28277442 119.33581107 14.41176451 126.35797741 8.32568359 130.14086914 C-2.4124269 136.21904489 -12.22793933 139.71044651 -24.61181641 139.57836914 C-25.57531006 139.57369629 -26.53880371 139.56902344 -27.53149414 139.56420898 C-34.56525045 139.417784 -40.35175945 138.331257 -46.67431641 135.14086914 C-48.33643066 134.46293224 -50.00203485 133.79332345 -51.67431641 133.14086914 C-51.67431641 132.48086914 -51.67431641 131.82086914 -51.67431641 131.14086914 C-52.72619141 130.80055664 -52.72619141 130.80055664 -53.79931641 130.45336914 C-62.32933325 126.55923102 -68.52399802 118.5009952 -71.98681641 109.95336914 C-72.57179137 108.35726099 -73.13367807 106.75253509 -73.67431641 105.14086914 C-74.0151123 104.22394287 -74.3559082 103.3070166 -74.70703125 102.36230469 C-75.68221152 99.11457534 -75.94627827 96.51947058 -75.97509766 93.14086914 C-75.98476563 92.01334229 -75.99443359 90.88581543 -76.00439453 89.72412109 C-75.9183996 72.19429253 -74.03002986 59.34216302 -65.60375977 43.88549805 C-64.76314163 42.30760017 -63.99711607 40.69051638 -63.24072266 39.07055664 C-61.38310231 35.59620438 -59.15104641 32.75972111 -56.61181641 29.76586914 C-56.16515625 29.2205957 -55.71849609 28.67532227 -55.25830078 28.11352539 C-54.11251193 26.74679967 -52.89815016 25.4381749 -51.67431641 24.14086914 C-51.01431641 24.14086914 -50.35431641 24.14086914 -49.67431641 24.14086914 C-49.42681641 23.54790039 -49.17931641 22.95493164 -48.92431641 22.34399414 C-47.48462778 19.80654294 -46.02280148 18.60042813 -43.67431641 16.89086914 C-42.97306641 16.37008789 -42.27181641 15.84930664 -41.54931641 15.31274414 C-39.67431641 14.14086914 -39.67431641 14.14086914 -37.67431641 14.14086914 C-37.67431641 13.48086914 -37.67431641 12.82086914 -37.67431641 12.14086914 C-28.60004799 7.02131358 -20.1858064 3.94728844 -9.99853516 1.86743164 C-1.47961743 0.00548253 -1.47961743 0.00548253 0 0 Z " fill="#384268" transform="translate(395.67431640625,228.859130859375)"/>
<path d="M0 0 C2.81223207 1.90221961 4.86578334 3.78966252 6.5625 6.75 C6.9609375 10.03515625 6.9609375 10.03515625 6.9375 13.8125 C6.94910156 15.65521484 6.94910156 15.65521484 6.9609375 17.53515625 C6.65506235 22.80527659 5.06590034 27.71700312 3.5625 32.75 C2.95414974 34.8579929 2.34608294 36.96606762 1.73828125 39.07421875 C1.11818401 41.19560404 0.49708497 43.31669675 -0.125 45.4375 C-0.44533203 46.53255859 -0.76566406 47.62761719 -1.09570312 48.75585938 C-1.87541212 51.42083489 -2.65602405 54.0855422 -3.4375 56.75 C-3.1075 57.08 -2.7775 57.41 -2.4375 57.75 C-2.05980469 57.20472656 -1.68210938 56.65945313 -1.29296875 56.09765625 C3.5088889 49.51899882 8.9949806 44.54380978 15.5625 39.75 C16.20832031 39.27046875 16.85414063 38.7909375 17.51953125 38.296875 C23.80589301 34.40727426 31.45990246 34.85927076 38.5625 35.75 C41.84164932 36.87496364 44.21308909 38.18881121 46.5625 40.75 C48.0625 44.0625 48.0625 44.0625 48.5625 46.75 C49.2225 46.75 49.8825 46.75 50.5625 46.75 C50.88148206 53.62583556 50.66883506 59.49010924 48.4296875 66.015625 C46.69777811 71.47660055 45.70212828 77.14076579 44.5625 82.75 C43.9025 82.75 43.2425 82.75 42.5625 82.75 C42.45292969 83.57242188 42.34335938 84.39484375 42.23046875 85.2421875 C41.48364059 90.50034348 40.76281721 95.49984195 38.9375 100.5 C37.42511042 105.21647266 37.16660267 109.77096774 37.0625 114.6875 C37.0320459 115.43418945 37.0015918 116.18087891 36.97021484 116.95019531 C36.91122444 119.35583737 36.91122444 119.35583737 37.5625 122.75 C39.94263347 124.82797245 39.94263347 124.82797245 42.5625 125.75 C42.08720993 130.02761063 39.7956694 132.09161627 36.5625 134.75 C33.25 135.5625 33.25 135.5625 30.5625 135.75 C30.5625 136.41 30.5625 137.07 30.5625 137.75 C25.60451117 139.1154055 20.34380129 140.03655204 15.52734375 137.80859375 C11.16092296 134.8512939 8.47650507 131.65819793 6.875 126.5625 C5.42531632 113.51534691 9.44214645 101.85578695 13.0625 89.4375 C13.35769531 88.40560547 13.65289062 87.37371094 13.95703125 86.31054688 C16.39403346 77.93133884 16.39403346 77.93133884 18.23828125 73.97265625 C19.72506531 70.35437646 20.06027749 67.39563549 20.25 63.5 C20.31574219 62.29859375 20.38148438 61.0971875 20.44921875 59.859375 C20.52337488 57.823917 20.5625 55.78680838 20.5625 53.75 C17.4032318 52.75541557 15.77696726 52.29448773 12.5625 52.75 C1.61825936 59.77020882 -2.82341459 70.15447164 -7.4375 81.75 C-7.81132812 82.58660156 -8.18515625 83.42320312 -8.5703125 84.28515625 C-13.59935363 95.74019438 -16.50457243 113.54878272 -12.4375 125.75 C-11.7775 125.75 -11.1175 125.75 -10.4375 125.75 C-10.4375 126.74 -10.4375 127.73 -10.4375 128.75 C-11.7575 129.08 -13.0775 129.41 -14.4375 129.75 C-14.4375 130.41 -14.4375 131.07 -14.4375 131.75 C-16.51953125 133.22265625 -16.51953125 133.22265625 -19.25 134.8125 C-20.14332031 135.33972656 -21.03664062 135.86695313 -21.95703125 136.41015625 C-26.68504101 138.96402609 -30.18496348 138.91674719 -35.4375 138.75 C-36.0975 138.42 -36.7575 138.09 -37.4375 137.75 C-37.4375 137.09 -37.4375 136.43 -37.4375 135.75 C-38.015 135.70875 -38.5925 135.6675 -39.1875 135.625 C-42.67322767 134.26943924 -43.63975069 131.95549102 -45.4375 128.75 C-48.41244185 110.79097605 -42.62970231 89.74848524 -37.07861328 72.74169922 C-35.96589427 69.28489737 -34.95547891 65.79814924 -33.9375 62.3125 C-33.73278076 61.61318359 -33.52806152 60.91386719 -33.31713867 60.19335938 C-32.90099585 58.76994504 -32.48571905 57.34627725 -32.07128906 55.92236328 C-31.64359839 54.4564189 -31.2131953 52.99126351 -30.78027344 51.52685547 C-25.62592732 34.04079319 -22.89572393 18.02992586 -23.4375 -0.25 C-6.9494161 -4.1365572 -6.9494161 -4.1365572 0 0 Z " fill="#374067" transform="translate(184.4375,229.25)"/>
<path d="M0 0 C0.90814453 -0.02900391 1.81628906 -0.05800781 2.75195312 -0.08789062 C10.63223626 -0.16122182 16.85349304 1.90664342 23.1875 6.625 C28.37778287 11.93886103 29.05435552 16.29749126 29.4375 23.5625 C29.27136733 31.57642354 26.7981018 36.20808205 21.8125 42.3125 C21.26078125 43.05242187 20.7090625 43.79234375 20.140625 44.5546875 C15.9621034 49.82758381 10.92340832 53.49208078 4.8125 56.3125 C3.8225 56.3125 2.8325 56.3125 1.8125 56.3125 C1.8125 56.9725 1.8125 57.6325 1.8125 58.3125 C-5.88746099 61.2325755 -15.38886564 63.51020306 -23.3828125 60.48046875 C-25.2545545 59.26910325 -26.69054596 57.95914945 -28.1875 56.3125 C-28.04966861 65.00840797 -27.71902737 73.20253174 -22.1875 80.3125 C-18.46508418 83.1346403 -15.49431106 83.7461917 -10.875 84 C-9.80636719 84.06574219 -8.73773438 84.13148438 -7.63671875 84.19921875 C-6.82847656 84.23660156 -6.02023437 84.27398437 -5.1875 84.3125 C-5.1875 83.6525 -5.1875 82.9925 -5.1875 82.3125 C-4.53523438 82.15394531 -3.88296875 81.99539063 -3.2109375 81.83203125 C4.04782929 79.89421888 8.53638043 77.72667936 12.8125 71.3125 C13.4725 71.3125 14.1325 71.3125 14.8125 71.3125 C15.1425 69.6625 15.4725 68.0125 15.8125 66.3125 C16.4725 66.6425 17.1325 66.9725 17.8125 67.3125 C18.46604543 78.20492388 16.84934653 83.85885734 9.9375 92.1875 C6.84308708 95.55426761 4.45252217 97.50049612 -0.1875 98.3125 C-0.1875 98.9725 -0.1875 99.6325 -0.1875 100.3125 C-3.1575 100.8075 -3.1575 100.8075 -6.1875 101.3125 C-6.1875 102.3025 -6.1875 103.2925 -6.1875 104.3125 C-11.55976706 105.20787784 -16.87102891 105.45016968 -22.3125 105.5 C-23.3334375 105.51933594 -23.3334375 105.51933594 -24.375 105.5390625 C-33.48514811 105.55678652 -42.5440778 101.54070831 -49.1875 95.3125 C-49.1875 94.6525 -49.1875 93.9925 -49.1875 93.3125 C-49.79078125 93.11140625 -50.3940625 92.9103125 -51.015625 92.703125 C-55.71991465 89.69102587 -56.98849772 82.57878446 -58.1875 77.3125 C-59.46753988 66.87069317 -57.39935424 56.4960792 -55.1875 46.3125 C-54.98253906 45.35085938 -54.77757812 44.38921875 -54.56640625 43.3984375 C-52.81006163 36.52578465 -49.23831904 31.07159763 -45.1875 25.3125 C-44.66285156 24.52746094 -44.13820312 23.74242187 -43.59765625 22.93359375 C-33.38379647 8.57425543 -17.32509224 0.18059512 0 0 Z " fill="#384167" transform="translate(290.1875,262.6875)"/>
<path d="M0 0 C2.3930697 2.88767074 2.34981479 4.4271426 2.24609375 8.1328125 C2.23320313 9.14085937 2.2203125 10.14890625 2.20703125 11.1875 C1.8509503 14.44191425 1.01284376 17.19792249 -0.12890625 20.2578125 C0.77202759 20.20451782 0.77202759 20.20451782 1.69116211 20.15014648 C4.39669061 19.99312569 7.10260132 19.84411453 9.80859375 19.6953125 C10.75412109 19.63923828 11.69964844 19.58316406 12.67382812 19.52539062 C13.57294922 19.47705078 14.47207031 19.42871094 15.3984375 19.37890625 C16.23109131 19.3317749 17.06374512 19.28464355 17.92163086 19.23608398 C19.87109375 19.2578125 19.87109375 19.2578125 20.87109375 20.2578125 C21.78889734 26.22353582 19.12662886 31.38826562 15.87109375 36.2578125 C13.10543993 37.17969711 11.48825673 37.37566472 8.640625 37.35546875 C7.83818359 37.35224609 7.03574219 37.34902344 6.20898438 37.34570312 C5.37560547 37.33732422 4.54222656 37.32894531 3.68359375 37.3203125 C2.83861328 37.31580078 1.99363281 37.31128906 1.12304688 37.30664062 C-0.9609678 37.29486653 -3.04494602 37.2769314 -5.12890625 37.2578125 C-9.04159007 50.15033611 -9.04159007 50.15033611 -12.12890625 63.2578125 C-12.78890625 63.2578125 -13.44890625 63.2578125 -14.12890625 63.2578125 C-14.15797237 67.82029909 -14.17572738 72.3827618 -14.19140625 76.9453125 C-14.19978516 78.23888672 -14.20816406 79.53246094 -14.21679688 80.86523438 C-14.22001953 82.11240234 -14.22324219 83.35957031 -14.2265625 84.64453125 C-14.23179932 85.79139404 -14.23703613 86.93825684 -14.24243164 88.11987305 C-14.13966432 90.96045027 -13.78207041 93.49825042 -13.12890625 96.2578125 C-11.80890625 96.5878125 -10.48890625 96.9178125 -9.12890625 97.2578125 C-9.12890625 97.9178125 -9.12890625 98.5778125 -9.12890625 99.2578125 C-0.59239181 98.55197728 -0.59239181 98.55197728 7.87109375 97.2578125 C6.75075601 106.50059889 0.39543788 112.37980325 -6.31640625 118.1328125 C-10.84581257 120.94416815 -16.22058547 120.54538333 -21.37890625 120.6328125 C-22.20003906 120.67019531 -23.02117187 120.70757812 -23.8671875 120.74609375 C-30.18510958 120.83620674 -34.25975028 119.30203486 -39.12890625 115.2578125 C-40.96875 113.1953125 -40.96875 113.1953125 -42.06640625 111.2578125 C-42.63681641 110.29875 -42.63681641 110.29875 -43.21875 109.3203125 C-48.0297649 98.41809847 -44.99911516 84.40912704 -42.55224609 73.21435547 C-42.13519188 71.28686271 -41.7509194 69.35237108 -41.3671875 67.41796875 C-40.0900682 61.08643019 -38.56444134 55.23594408 -36.12890625 49.2578125 C-35.27232298 46.43274516 -35.05678298 44.11576728 -35.2421875 41.17578125 C-35.88258471 26.8806088 -35.88258471 26.8806088 -32.19140625 22.8203125 C-31.18078125 21.9746875 -30.17015625 21.1290625 -29.12890625 20.2578125 C-28.26471402 17.66523581 -27.95309693 15.91743543 -27.8125 13.24609375 C-27.77060547 12.48876953 -27.72871094 11.73144531 -27.68554688 10.95117188 C-27.64623047 10.16548828 -27.60691406 9.37980469 -27.56640625 8.5703125 C-27.52322266 7.77302734 -27.48003906 6.97574219 -27.43554688 6.15429688 C-27.32963257 4.18899803 -27.22878074 2.22342754 -27.12890625 0.2578125 C-27.78890625 0.2578125 -28.44890625 0.2578125 -29.12890625 0.2578125 C-28.79890625 -1.0621875 -28.46890625 -2.3821875 -28.12890625 -3.7421875 C-18.24320729 -5.58138731 -8.13460067 -6.65693927 0 0 Z " fill="#374167" transform="translate(125.12890625,246.7421875)"/>
<path d="M0 0 C1.04220703 -0.04350586 1.04220703 -0.04350586 2.10546875 -0.08789062 C7.32412969 -0.15177254 10.15044609 0.98904823 14.125 4.3125 C17.03116938 7.17536553 18.03720774 8.56363199 18.515625 12.64453125 C18.46921875 13.79308594 18.4228125 14.94164062 18.375 16.125 C18.33890625 17.28644531 18.3028125 18.44789063 18.265625 19.64453125 C18.21921875 20.52496094 18.1728125 21.40539062 18.125 22.3125 C17.465 22.3125 16.805 22.3125 16.125 22.3125 C16.08761719 22.91835938 16.05023438 23.52421875 16.01171875 24.1484375 C15.58871169 29.53970393 14.6588143 34.35784802 13.01171875 39.5 C4.85694025 64.04383463 4.85694025 64.04383463 5.95703125 89.1484375 C6.98649925 91.64669935 6.98649925 91.64669935 10.125 92.3125 C9.3125 94.25 9.3125 94.25 8.125 96.3125 C7.135 96.6425 6.145 96.9725 5.125 97.3125 C5.125 97.9725 5.125 98.6325 5.125 99.3125 C-6.5625 106.53125 -6.5625 106.53125 -13.875 105.3125 C-18.80122414 103.4613093 -23.64940897 100.20085172 -25.875 95.3125 C-27.3739041 85.63207766 -25.07747626 74.97525564 -23.875 65.3125 C-23.215 65.3125 -22.555 65.3125 -21.875 65.3125 C-21.81441406 64.66023438 -21.75382812 64.00796875 -21.69140625 63.3359375 C-21.23980009 58.62533783 -20.73304961 53.97048362 -19.875 49.3125 C-19.215 49.3125 -18.555 49.3125 -17.875 49.3125 C-17.70677734 47.64767578 -17.70677734 47.64767578 -17.53515625 45.94921875 C-17.01768219 41.79756175 -16.06116802 37.84490241 -15.00830078 33.80053711 C-11.24389092 19.59028132 -11.24389092 19.59028132 -12.4609375 5.09765625 C-12.875 3.3125 -12.875 3.3125 -11.875 1.3125 C-8.10608611 -0.14068819 -3.98797277 0.05488036 0 0 Z " fill="#353F67" transform="translate(456.875,262.6875)"/>
<path d="M0 0 C6.10406479 6.38152228 6.47225381 12.43366122 6.29296875 21.08203125 C5.41690663 27.2018609 2.59464216 31.16758381 -1.25 35.875 C-1.80171875 36.61492187 -2.3534375 37.35484375 -2.921875 38.1171875 C-7.1003966 43.39008381 -12.13909168 47.05458078 -18.25 49.875 C-19.24 49.875 -20.23 49.875 -21.25 49.875 C-21.25 50.535 -21.25 51.195 -21.25 51.875 C-28.76059663 54.72326238 -36.22558333 55.98406572 -44.25 54.875 C-46.6328125 53.3515625 -46.6328125 53.3515625 -48.25 51.875 C-46.6 51.875 -44.95 51.875 -43.25 51.875 C-43.745 50.39 -43.745 50.39 -44.25 48.875 C-42.45963542 47.8984375 -40.66927083 46.921875 -38.87890625 45.9453125 C-37.08381685 44.96089976 -37.08381685 44.96089976 -36.25 42.875 C-38.0134375 43.37 -38.0134375 43.37 -39.8125 43.875 C-43.66119227 44.95533467 -47.26402593 44.95230374 -51.25 44.875 C-50.60587386 42.10375964 -49.95977252 39.33300555 -49.3125 36.5625 C-49.03889648 35.38397461 -49.03889648 35.38397461 -48.75976562 34.18164062 C-48.58251953 33.42431641 -48.40527344 32.66699219 -48.22265625 31.88671875 C-48.06031494 31.19022217 -47.89797363 30.49372559 -47.73071289 29.77612305 C-47.31234435 28.1215594 -46.78968631 26.49405892 -46.25 24.875 C-45.59 24.875 -44.93 24.875 -44.25 24.875 C-44.064375 23.905625 -43.87875 22.93625 -43.6875 21.9375 C-41.66437655 14.91355732 -36.13378658 8.65750995 -30.0859375 4.67578125 C-26.71478385 3.20538445 -23.87800234 3.50605061 -20.25 3.875 C-18.25 4.875 -18.25 4.875 -16.25 7.875 C-15.92 7.215 -15.59 6.555 -15.25 5.875 C-15.91 5.545 -16.57 5.215 -17.25 4.875 C-14.82377049 -1.79713115 -14.82377049 -1.79713115 -12.5 -3.125 C-7.5248678 -3.125 -4.24583102 -2.77612028 0 0 Z " fill="#384167" transform="translate(313.25,269.125)"/>
<path d="M0 0 C0.99 0 1.98 0 3 0 C3.9003017 10.80362046 -0.22379425 19.741376 -7.11328125 27.9609375 C-13.19091494 34.5293118 -17.8661636 38.65796451 -27.15234375 39.17578125 C-34.51833164 39.33320956 -39.34152063 38.53884631 -45.75 34.9375 C-50.07482491 32.71731317 -54.18887655 32.2227372 -59 32 C-59.33 33.32 -59.66 34.64 -60 36 C-60.66 36 -61.32 36 -62 36 C-62 36.99 -62 37.98 -62 39 C-62.99 39 -63.98 39 -65 39 C-67.31282587 35.53076119 -67.42478586 34.07794425 -67 30 C-65.91210938 28.33789062 -65.91210938 28.33789062 -64 27 C-60.89648438 26.61523438 -60.89648438 26.61523438 -57.09375 26.59375 C-56.41380981 26.58291382 -55.73386963 26.57207764 -55.0333252 26.56091309 C-52.85545506 26.52666789 -50.67810355 26.51108818 -48.5 26.5 C-32.89735131 27.17766661 -32.89735131 27.17766661 -19.20898438 21.39648438 C-18.81001953 20.93564453 -18.41105469 20.47480469 -18 20 C-18.54527344 20.19335938 -19.09054687 20.38671875 -19.65234375 20.5859375 C-22.09083022 21.42794479 -24.54005112 22.22297455 -27 23 C-27.66128906 23.21269531 -28.32257813 23.42539063 -29.00390625 23.64453125 C-36.80875565 25.76757248 -44.98498725 25.16563746 -53 25 C-54 22 -54 22 -52.375 18.625 C-48.91842266 13.00953647 -43.87670723 8.07433376 -38 5 C-33.50146895 4.05769828 -29.22163888 3.88338166 -24.6328125 3.90234375 C-23.61343094 3.90446617 -23.61343094 3.90446617 -22.57345581 3.90663147 C-20.42392388 3.91218482 -18.27449992 3.92472831 -16.125 3.9375 C-14.65885568 3.94252104 -13.19270971 3.94708289 -11.7265625 3.95117188 C-8.15100717 3.96213889 -4.57551414 3.97937081 -1 4 C-0.67 2.68 -0.34 1.36 0 0 Z " fill="#7FB252" transform="translate(509,219)"/>
<path d="M0 0 C0.66 0.33 1.32 0.66 2 1 C2.02712153 2.916588 2.04645097 4.8332873 2.0625 6.75 C2.07410156 7.81734375 2.08570313 8.8846875 2.09765625 9.984375 C2.01510087 12.53368501 1.74617558 14.57933591 1 17 C0.34 17 -0.32 17 -1 17 C-1.07605469 18.04027344 -1.15210938 19.08054687 -1.23046875 20.15234375 C-2.55360313 26.76801567 -7.0519806 30.65253176 -12 35 C-18.35091054 39.19642443 -23.31792208 41.35396872 -31 41 C-30.35587386 38.22875964 -29.70977252 35.45800555 -29.0625 32.6875 C-28.78889648 31.50897461 -28.78889648 31.50897461 -28.50976562 30.30664062 C-28.33251953 29.54931641 -28.15527344 28.79199219 -27.97265625 28.01171875 C-27.81031494 27.31522217 -27.64797363 26.61872559 -27.48071289 25.90112305 C-27.06234435 24.2465594 -26.53968631 22.61905892 -26 21 C-25.34 21 -24.68 21 -24 21 C-23.814375 20.030625 -23.62875 19.06125 -23.4375 18.0625 C-21.41437655 11.03855732 -15.88378658 4.78250995 -9.8359375 0.80078125 C-6.46478385 -0.66961555 -3.62800234 -0.36894939 0 0 Z " fill="#F0F6F8" transform="translate(293,273)"/>
<path d="M0 0 C0.7734375 0.3403125 0.7734375 0.3403125 1.5625 0.6875 C0.61375 1.14125 -0.335 1.595 -1.3125 2.0625 C-4.44063679 3.48988254 -4.44063679 3.48988254 -6.4375 5.6875 C-15.27384312 9.3273768 -24.61982682 9.16876354 -34 9.25 C-36.18827219 9.27383529 -38.37615321 9.30186463 -40.56419373 9.34178162 C-42.52513924 9.37704046 -44.48634111 9.39707565 -46.44750977 9.41625977 C-49.55315605 9.37626842 -49.55315605 9.37626842 -51.4375 11.6875 C-51.65426408 15.08347063 -51.51823852 17.44528445 -50.4375 20.6875 C-49.4475 20.6875 -48.4575 20.6875 -47.4375 20.6875 C-47.4375 19.6975 -47.4375 18.7075 -47.4375 17.6875 C-46.7775 17.6875 -46.1175 17.6875 -45.4375 17.6875 C-45.1075 16.3675 -44.7775 15.0475 -44.4375 13.6875 C-37.55259775 13.11375815 -33.41082123 14.2121131 -27.4375 17.6875 C-28.4275 18.0175 -29.4175 18.3475 -30.4375 18.6875 C-30.7675 19.6775 -31.0975 20.6675 -31.4375 21.6875 C-35.0675 22.0175 -38.6975 22.3475 -42.4375 22.6875 C-41.58285156 22.73648437 -40.72820312 22.78546875 -39.84765625 22.8359375 C-38.74292969 22.91070312 -37.63820313 22.98546875 -36.5 23.0625 C-34.84677734 23.16691406 -34.84677734 23.16691406 -33.16015625 23.2734375 C-32.26167969 23.41007812 -31.36320312 23.54671875 -30.4375 23.6875 C-30.1075 24.3475 -29.7775 25.0075 -29.4375 25.6875 C-36.0375 26.0175 -42.6375 26.3475 -49.4375 26.6875 C-50.0975 28.0075 -50.7575 29.3275 -51.4375 30.6875 C-51.7675 30.0275 -52.0975 29.3675 -52.4375 28.6875 C-53.0975 29.0175 -53.7575 29.3475 -54.4375 29.6875 C-54.4918965 27.31218606 -54.53135864 24.93814117 -54.5625 22.5625 C-54.57925781 21.89734375 -54.59601563 21.2321875 -54.61328125 20.546875 C-54.65585091 16.20476969 -54.29406598 12.63564031 -52.4375 8.6875 C-50.6328125 7.4453125 -50.6328125 7.4453125 -48.5625 6.8125 C-47.88445312 6.58820313 -47.20640625 6.36390625 -46.5078125 6.1328125 C-44.4375 5.6875 -44.4375 5.6875 -40.4375 5.6875 C-40.1075 4.0375 -39.7775 2.3875 -39.4375 0.6875 C-38.7775 1.0175 -38.1175 1.3475 -37.4375 1.6875 C-37.7675 3.0075 -38.0975 4.3275 -38.4375 5.6875 C-26.80343571 6.05967978 -16.24484057 5.88516435 -5.4375 0.9375 C-2.4375 -0.3125 -2.4375 -0.3125 0 0 Z " fill="#E9F2E7" transform="translate(494.4375,237.3125)"/>
<path d="M0 0 C0.99 0.33 1.98 0.66 3 1 C5.14255793 0.61067144 5.14255793 0.61067144 7 0 C7 1.32 7 2.64 7 4 C9.475 4.495 9.475 4.495 12 5 C12 5.33 12 5.66 12 6 C11.05125 5.979375 10.1025 5.95875 9.125 5.9375 C1.43340158 6.98706638 -4.54592356 15.22505951 -9 21 C-10.5 19.6875 -10.5 19.6875 -12 18 C-12 11.93403272 -6.76586891 6.57836891 -2.625 2.4375 C-1.325625 1.2309375 -1.325625 1.2309375 0 0 Z " fill="#3F4367" transform="translate(192,275)"/>
<path d="M0 0 C0.7734375 0.3403125 0.7734375 0.3403125 1.5625 0.6875 C0.61375 1.14125 -0.335 1.595 -1.3125 2.0625 C-4.44063679 3.48988254 -4.44063679 3.48988254 -6.4375 5.6875 C-14.95175251 9.1669932 -23.57360082 9.05123793 -32.625 8.875 C-33.97199006 8.85990904 -35.31899668 8.84622852 -36.66601562 8.83398438 C-39.92361152 8.79895646 -43.18033173 8.74983662 -46.4375 8.6875 C-46.4375 8.0275 -46.4375 7.3675 -46.4375 6.6875 C-44.4575 6.3575 -42.4775 6.0275 -40.4375 5.6875 C-40.1075 4.0375 -39.7775 2.3875 -39.4375 0.6875 C-38.7775 1.0175 -38.1175 1.3475 -37.4375 1.6875 C-37.7675 3.0075 -38.0975 4.3275 -38.4375 5.6875 C-26.80343571 6.05967978 -16.24484057 5.88516435 -5.4375 0.9375 C-2.4375 -0.3125 -2.4375 -0.3125 0 0 Z " fill="#D1EFBF" transform="translate(494.4375,237.3125)"/>
<path d="M0 0 C1.98 0 3.96 0 6 0 C5.01 0.33 4.02 0.66 3 1 C2.835 1.66 2.67 2.32 2.5 3 C2.335 3.66 2.17 4.32 2 5 C-1.30082626 6.10027542 -3.699056 6.09870663 -7.171875 6.0625 C-8.39390625 6.05476562 -9.6159375 6.04703125 -10.875 6.0390625 C-13.44270993 6.01317833 -16.01041829 5.98713859 -18.578125 5.9609375 C-19.8053125 5.95320312 -21.0325 5.94546875 -22.296875 5.9375 C-23.41416992 5.92589844 -24.53146484 5.91429687 -25.68261719 5.90234375 C-29.18618511 6.00548087 -32.54188296 6.44319383 -36 7 C-36 6.01 -36 5.02 -36 4 C-32.22905955 1.4860397 -29.23320555 1.73973558 -24.875 1.8125 C-24.13378906 1.81314453 -23.39257812 1.81378906 -22.62890625 1.81445312 C-17.14039459 1.85960541 -17.14039459 1.85960541 -16 3 C-13.65012738 3.23527773 -11.29443961 3.41386417 -8.9375 3.5625 C-7.64714844 3.64628906 -6.35679687 3.73007813 -5.02734375 3.81640625 C-3.52880859 3.90728516 -3.52880859 3.90728516 -2 4 C-1.34 2.68 -0.68 1.36 0 0 Z " fill="#EBFADE" transform="translate(506,218)"/>
<path d="M0 0 C0.66 0.33 1.32 0.66 2 1 C2.4731614 8.88602342 2.17981006 14.20780865 -2 21 C-3.78520784 19.30671343 -4.93351227 18.15070551 -5.9375 15.875 C-6.84645565 13.79278299 -6.84645565 13.79278299 -9.125 13.25 C-9.74375 13.1675 -10.3625 13.085 -11 13 C-9.50260417 11.79557292 -8.00520833 10.59114583 -6.5078125 9.38671875 C-4.74707893 7.87729455 -4.74707893 7.87729455 -3 5 C-2.34 5 -1.68 5 -1 5 C-0.67 3.35 -0.34 1.7 0 0 Z " fill="#38395B" transform="translate(306,329)"/>
<path d="M0 0 C1.05904289 0.00636726 1.05904289 0.00636726 2.13948059 0.01286316 C4.39155428 0.02963841 6.64272867 0.06728632 8.89453125 0.10546875 C10.4225131 0.12051718 11.95050901 0.13420531 13.47851562 0.14648438 C17.22169997 0.17953786 20.96421321 0.23131043 24.70703125 0.29296875 C24.70703125 0.62296875 24.70703125 0.95296875 24.70703125 1.29296875 C15.13703125 1.62296875 5.56703125 1.95296875 -4.29296875 2.29296875 C-4.29296875 2.95296875 -4.29296875 3.61296875 -4.29296875 4.29296875 C-0.33296875 4.29296875 3.62703125 4.29296875 7.70703125 4.29296875 C7.37703125 4.95296875 7.04703125 5.61296875 6.70703125 6.29296875 C3.73703125 5.96296875 0.76703125 5.63296875 -2.29296875 5.29296875 C-2.62296875 6.61296875 -2.95296875 7.93296875 -3.29296875 9.29296875 C-3.95296875 9.29296875 -4.61296875 9.29296875 -5.29296875 9.29296875 C-5.29296875 10.28296875 -5.29296875 11.27296875 -5.29296875 12.29296875 C-6.28296875 12.29296875 -7.27296875 12.29296875 -8.29296875 12.29296875 C-10.60579462 8.82372994 -10.71775461 7.370913 -10.29296875 3.29296875 C-7.80055279 -0.61812785 -4.18870443 -0.09475452 0 0 Z " fill="#9BBB79" transform="translate(452.29296875,245.70703125)"/>
<path d="M0 0 C-7.09378734 6.57472973 -13.40173046 7.22043577 -22.9140625 7.265625 C-27.67117005 6.85615245 -30.85626798 5.64011076 -34 2 C-32.0509375 2.2475 -32.0509375 2.2475 -30.0625 2.5 C-28.37594901 2.67601077 -26.68838218 2.84252093 -25 3 C-24.28070313 3.06832031 -23.56140625 3.13664063 -22.8203125 3.20703125 C-16.9088313 3.49935724 -12.18669245 1.90777472 -6.69921875 -0.22265625 C-3.91299899 -1.02505528 -2.66897062 -1.00799603 0 0 Z " fill="#92B771" transform="translate(498,251)"/>
<path d="M0 0 C1.32 0.66 2.64 1.32 4 2 C3.67 6.29 3.34 10.58 3 15 C2.34 15 1.68 15 1 15 C0.67 15.99 0.34 16.98 0 18 C0 17.34 0 16.68 0 16 C-0.99 15.67 -1.98 15.34 -3 15 C-2.01 14.67 -1.02 14.34 0 14 C0.33 13.34 0.66 12.68 1 12 C0.34 12 -0.32 12 -1 12 C-1.33 10.35 -1.66 8.7 -2 7 C-2.78375 7.78375 -3.5675 8.5675 -4.375 9.375 C-5.91666667 10.91666667 -7.45833333 12.45833333 -9 14 C-9.99 14 -10.98 14 -12 14 C-10.86314577 10.58943731 -9.84668031 9.80065835 -7.125 7.5625 C-4.31138586 5.24204701 -2.09258206 2.99410327 0 0 Z " fill="#5B5F77" transform="translate(417,324)"/>
<path d="M0 0 C0.98608749 0.00212242 0.98608749 0.00212242 1.99209595 0.00428772 C4.07029981 0.00983863 6.14839177 0.0223816 8.2265625 0.03515625 C9.64452968 0.04017761 11.06249857 0.0447394 12.48046875 0.04882812 C15.93753572 0.05979188 19.39453817 0.07702204 22.8515625 0.09765625 C20.20410156 3.05664062 20.20410156 3.05664062 17.03125 3.42578125 C15.94070313 3.4 14.85015625 3.37421875 13.7265625 3.34765625 C12.56769531 3.32445312 11.40882813 3.30125 10.21484375 3.27734375 C7.40939769 3.12745929 4.69346593 2.86092044 1.9140625 2.47265625 C-2.71849515 1.87025406 -6.08247374 2.93555164 -10.1484375 5.22265625 C-12.86257133 6.4100898 -15.22264963 6.23064661 -18.1484375 6.09765625 C-18.4784375 7.08765625 -18.8084375 8.07765625 -19.1484375 9.09765625 C-20.1384375 8.76765625 -21.1284375 8.43765625 -22.1484375 8.09765625 C-20.78542888 6.93758447 -19.40738041 5.79517213 -18.0234375 4.66015625 C-17.25773437 4.02207031 -16.49203125 3.38398438 -15.703125 2.7265625 C-10.90754929 -0.33116697 -5.54850474 -0.02371156 0 0 Z " fill="#98B877" transform="translate(484.1484375,222.90234375)"/>
<path d="M0 0 C0.33 0 0.66 0 1 0 C1 2.97 1 5.94 1 9 C1.99 9.33 2.98 9.66 4 10 C3.86287598 10.62946533 3.72575195 11.25893066 3.58447266 11.9074707 C2.01836871 19.6770007 1.57969846 27.27675747 1.375 35.1875 C1.31699219 37.0447168 1.31699219 37.0447168 1.2578125 38.93945312 C1.16452931 41.95949626 1.07873594 44.9795486 1 48 C-1.04173535 44.62301212 -1.23525039 42.05453777 -1.1953125 38.140625 C-1.18886719 37.02558594 -1.18242187 35.91054688 -1.17578125 34.76171875 C-1.15902344 33.60285156 -1.14226562 32.44398438 -1.125 31.25 C-1.11597656 30.07566406 -1.10695313 28.90132813 -1.09765625 27.69140625 C-1.07410063 24.79406464 -1.04120652 21.89713559 -1 19 C-1.99 19.66 -2.98 20.32 -4 21 C-2.125 15.125 -2.125 15.125 -1 14 C-0.76472227 11.65012738 -0.58613583 9.29443961 -0.4375 6.9375 C-0.35371094 5.64714844 -0.26992188 4.35679687 -0.18359375 3.02734375 C-0.12300781 2.02832031 -0.06242187 1.02929688 0 0 Z " fill="#C8D0DB" transform="translate(319,280)"/>
<path d="M0 0 C0.33 0 0.66 0 1 0 C1 4.29 1 8.58 1 13 C1.66 13.33 2.32 13.66 3 14 C2.071875 15.3303125 2.071875 15.3303125 1.125 16.6875 C-0.66960135 19.4849668 -1.79304351 21.9423769 -3 25 C-4.25 27.25 -4.25 27.25 -6 29 C-7.98973651 29.38994836 -9.99067613 29.72846975 -12 30 C-11.31164062 28.98292969 -11.31164062 28.98292969 -10.609375 27.9453125 C-4.61106556 18.84703641 -0.70623699 10.94667327 0 0 Z " fill="#F1F9DF" transform="translate(512,219)"/>
<path d="M0 0 C1.96082651 5.4467403 0.31177557 10.91409374 -2 16 C-1.01 16 -0.02 16 1 16 C1.33 14.68 1.66 13.36 2 12 C2 12.66 2 13.32 2 14 C2.66 14.33 3.32 14.66 4 15 C-3.29840547 23.44646925 -3.29840547 23.44646925 -7 27 C-5.49294427 17.67398456 -3.05463854 8.92894343 0 0 Z " fill="#D8DEEA" transform="translate(187,262)"/>
<path d="M0 0 C0.99 0 1.98 0 3 0 C3.56377723 8.83250989 2.26258646 15.78527339 -1 24 C-1.66 23.67 -2.32 23.34 -3 23 C-2.85915204 21.20793453 -2.71216299 19.41635083 -2.5625 17.625 C-2.48128906 16.62726563 -2.40007812 15.62953125 -2.31640625 14.6015625 C-2 12 -2 12 -1 10 C-0.77377919 8.29636178 -0.59111527 6.58671299 -0.4375 4.875 C-0.31181641 3.50988281 -0.31181641 3.50988281 -0.18359375 2.1171875 C-0.12300781 1.41851562 -0.06242188 0.71984375 0 0 Z " fill="#494D66" transform="translate(232,276)"/>
<path d="M0 0 C0.66 0.33 1.32 0.66 2 1 C1.34 2.32 0.68 3.64 0 5 C-0.66 5 -1.32 5 -2 5 C-2.14308594 5.85851562 -2.14308594 5.85851562 -2.2890625 6.734375 C-3.15928195 9.5076018 -4.46272343 11.07145708 -6.375 13.25 C-6.98085937 13.95640625 -7.58671875 14.6628125 -8.2109375 15.390625 C-10 17 -10 17 -13 17 C-13 11.94954185 -9.22648368 8.67728978 -6 5 C-4.06954669 3.17842258 -2.1211001 1.60375861 0 0 Z " fill="#434B63" transform="translate(258,274)"/>
<path d="M0 0 C-1.25125384 3.75376152 -2.5652404 4.24073289 -6 6 C-6.66 6 -7.32 6 -8 6 C-7.67 6.66 -7.34 7.32 -7 8 C-5.88625 7.95875 -4.7725 7.9175 -3.625 7.875 C0 8 0 8 2 10 C-8.55808656 10.3690205 -8.55808656 10.3690205 -13 8 C-12.67 6.35 -12.34 4.7 -12 3 C-10.88625 2.690625 -9.7725 2.38125 -8.625 2.0625 C-1.58823529 0 -1.58823529 0 0 0 Z " fill="#363B59" transform="translate(277,312)"/>
<path d="M0 0 C1.19882812 0.00483398 1.19882812 0.00483398 2.421875 0.00976562 C3.246875 0.01814453 4.071875 0.02652344 4.921875 0.03515625 C5.76234375 0.03966797 6.6028125 0.04417969 7.46875 0.04882812 C9.53648901 0.06057664 11.60419124 0.07851103 13.671875 0.09765625 C10.671875 2.09765625 10.671875 2.09765625 7.671875 3.09765625 C7.671875 4.08765625 7.671875 5.07765625 7.671875 6.09765625 C6.351875 5.76765625 5.031875 5.43765625 3.671875 5.09765625 C3.671875 4.43765625 3.671875 3.77765625 3.671875 3.09765625 C-0.288125 3.09765625 -4.248125 3.09765625 -8.328125 3.09765625 C-8.328125 2.43765625 -8.328125 1.77765625 -8.328125 1.09765625 C-5.47652109 0.28331482 -2.96186369 -0.02115617 0 0 Z " fill="#84AB5E" transform="translate(456.328125,246.90234375)"/>
<path d="M0 0 C0.33 0.66 0.66 1.32 1 2 C0.34 2 -0.32 2 -1 2 C-1.2165625 2.8971875 -1.2165625 2.8971875 -1.4375 3.8125 C-1.8872439 5.56150404 -2.42892341 7.28677023 -3 9 C3.6 9 10.2 9 17 9 C17 9.33 17 9.66 17 10 C12.37540756 11.17700048 7.92133538 11.11408412 3.1875 11.0625 C2.39923828 11.05798828 1.61097656 11.05347656 0.79882812 11.04882812 C-1.13414761 11.03711312 -3.06708393 11.01917998 -5 11 C-6 8 -6 8 -5.29296875 6.2109375 C-4.74576172 5.30214844 -4.74576172 5.30214844 -4.1875 4.375 C-3.83042969 3.76398438 -3.47335937 3.15296875 -3.10546875 2.5234375 C-2 1 -2 1 0 0 Z " fill="#91B47A" transform="translate(461,233)"/>
<path d="M0 0 C0.33 0.66 0.66 1.32 1 2 C-7.72726908 5.21048187 -16.8803404 5.60935169 -26 4 C-25.67 3.34 -25.34 2.68 -25 2 C-22.71484375 1.5859375 -22.71484375 1.5859375 -19.9375 1.375 C-19.01839844 1.30023438 -18.09929687 1.22546875 -17.15234375 1.1484375 C-16.44207031 1.09945313 -15.73179687 1.05046875 -15 1 C-15 1.33 -15 1.66 -15 2 C-13.06215735 1.85879286 -11.12473045 1.71187127 -9.1875 1.5625 C-8.10855469 1.48128906 -7.02960938 1.40007812 -5.91796875 1.31640625 C-2.94010095 1.09787539 -2.94010095 1.09787539 0 0 Z " fill="#343C56" transform="translate(285,362)"/>
<path d="M0 0 C3.73917777 2.49278518 5.03087649 4.7197045 6 9 C6.24764396 14.01479009 6.17429827 18.98408306 6 24 C5.34 24.33 4.68 24.66 4 25 C4.33 20.38 4.66 15.76 5 11 C3.68 10.67 2.36 10.34 1 10 C0.67 6.7 0.34 3.4 0 0 Z " fill="#575D73" transform="translate(313,270)"/>
<path d="M0 0 C2.10448938 0.14109986 4.2085877 0.28804175 6.3125 0.4375 C7.48425781 0.51871094 8.65601563 0.59992188 9.86328125 0.68359375 C13 1 13 1 16 2 C15 3.5 15 3.5 13 5 C4.51739788 5.67322239 4.51739788 5.67322239 1 3 C0.67 2.01 0.34 1.02 0 0 Z " fill="#535A6E" transform="translate(438,363)"/>
<path d="M0 0 C0.33 0 0.66 0 1 0 C0.91932999 3.12607441 0.8064771 6.25016751 0.6875 9.375 C0.66494141 10.26445312 0.64238281 11.15390625 0.61914062 12.0703125 C0.58369141 12.92109375 0.54824219 13.771875 0.51171875 14.6484375 C0.48553467 15.43395996 0.45935059 16.21948242 0.43237305 17.02880859 C0 19 0 19 -3 21 C-2.88553728 18.43663746 -2.75880499 15.87486555 -2.625 13.3125 C-2.5940625 12.59126953 -2.563125 11.87003906 -2.53125 11.12695312 C-2.30664413 7.02789606 -1.82259091 3.75631541 0 0 Z " fill="#363F55" transform="translate(434,332)"/>
<path d="M0 0 C1.99097846 2.98646769 2.94124926 5.59687262 4 9 C0.37 8.34 -3.26 7.68 -7 7 C-6.67 6.01 -6.34 5.02 -6 4 C-5.01 4 -4.02 4 -3 4 C-3.33 3.34 -3.66 2.68 -4 2 C-2.68 2 -1.36 2 0 2 C0 1.34 0 0.68 0 0 Z " fill="#33385D" transform="translate(299,341)"/>
<path d="M0 0 C-0.55728913 3.34373475 -1.35173889 6.03312999 -3 9 C-3.33 9 -3.66 9 -4 9 C-4 7.35 -4 5.7 -4 4 C-7.63 3.67 -11.26 3.34 -15 3 C-15 2.67 -15 2.34 -15 2 C-13.06302033 1.66365624 -11.12539514 1.33102835 -9.1875 1 C-7.56908203 0.7215625 -7.56908203 0.7215625 -5.91796875 0.4375 C-3 0 -3 0 0 0 Z " fill="#4F5669" transform="translate(133,344)"/>
<path d="M0 0 C0.33 0 0.66 0 1 0 C1.36923077 5.41538462 1.36923077 5.41538462 -0.5 8.375 C-0.995 8.91125 -1.49 9.4475 -2 10 C-2.66 9.67 -3.32 9.34 -4 9 C-3.67 8.34 -3.34 7.68 -3 7 C-5.7839183 8.39195915 -5.97898997 10.15575779 -7 13 C-7.8125 11.375 -7.8125 11.375 -8 9 C-5.75 5.75 -5.75 5.75 -3 3 C-2.01 3 -1.02 3 0 3 C0 2.01 0 1.02 0 0 Z " fill="#4D5469" transform="translate(98,265)"/>
<path d="M0 0 C1.2065625 0.0309375 1.2065625 0.0309375 2.4375 0.0625 C1.2 0.7121875 1.2 0.7121875 -0.0625 1.375 C-3.05095795 4.5875923 -2.90234912 5.5624469 -2.875 9.8125 C-2.79477209 11.56376074 -2.69810864 13.31465533 -2.5625 15.0625 C-3.2225 15.0625 -3.8825 15.0625 -4.5625 15.0625 C-4.8925 16.0525 -5.2225 17.0425 -5.5625 18.0625 C-5.9369872 6.37017728 -5.9369872 6.37017728 -3.5625 1.0625 C-2.5625 0.0625 -2.5625 0.0625 0 0 Z " fill="#DDEFDF" transform="translate(445.5625,244.9375)"/>
<path d="M0 0 C1.63001953 0.01353516 1.63001953 0.01353516 3.29296875 0.02734375 C4.12441406 0.03894531 4.95585938 0.05054688 5.8125 0.0625 C4.69921875 1.55078125 4.69921875 1.55078125 2.8125 3.0625 C-0.10546875 3.35546875 -0.10546875 3.35546875 -3.375 3.25 C-4.46167969 3.22292969 -5.54835938 3.19585937 -6.66796875 3.16796875 C-7.91513672 3.11576172 -7.91513672 3.11576172 -9.1875 3.0625 C-9.1875 2.4025 -9.1875 1.7425 -9.1875 1.0625 C-5.90230525 -0.03256492 -3.45086585 -0.03710608 0 0 Z " fill="#323A54" transform="translate(107.1875,362.9375)"/>
<path d="M0 0 C-0.33 0.66 -0.66 1.32 -1 2 C-4.0625 2.625 -4.0625 2.625 -7 3 C-7.33 3.99 -7.66 4.98 -8 6 C-8.66 6 -9.32 6 -10 6 C-10 10.29 -10 14.58 -10 19 C-10.33 19 -10.66 19 -11 19 C-11.02690844 16.37493198 -11.04679404 13.75013827 -11.0625 11.125 C-11.07087891 10.37863281 -11.07925781 9.63226563 -11.08789062 8.86328125 C-11.11328125 3.2265625 -11.11328125 3.2265625 -10 1 C-6.61964088 0.37400757 -3.43830115 0 0 0 Z " fill="#696F8D" transform="translate(272,313)"/>
<path d="M0 0 C0.33 0.66 0.66 1.32 1 2 C-0.3324967 5.86424043 -2.98035402 8.33983568 -6 11 C-9.05133626 12.25643258 -9.76820321 12.0772656 -13 11 C-12.48050781 10.70867187 -11.96101563 10.41734375 -11.42578125 10.1171875 C-6.58707149 7.27299212 -3.35090767 4.50278218 0 0 Z " fill="#CAD4E0" transform="translate(310,306)"/>
<path d="M0 0 C1.59482572 4.81724756 0.10259598 8.54090965 -2 13 C-3.53962701 14.98278374 -5.06129929 16.37568319 -7 18 C-7 14.25534786 -5.786678 12.31042176 -4.0625 9 C-2.50482701 5.99512728 -1.07055941 3.21167823 0 0 Z " fill="#D1EAB8" transform="translate(511,228)"/>
<path d="M0 0 C2.00720923 0.28674418 4.0085944 0.61866701 6 1 C5.6875 2.875 5.6875 2.875 5 5 C4.01 5.66 3.02 6.32 2 7 C1.01 6.67 0.02 6.34 -1 6 C-1.042721 4.33388095 -1.04063832 2.66617115 -1 1 C-0.67 0.67 -0.34 0.34 0 0 Z " fill="#434766" transform="translate(221,354)"/>
<path d="M0 0 C0.66 0 1.32 0 2 0 C0.81537831 4.34361288 -0.30489146 7.28300842 -4 10 C-6.1328125 9.59765625 -6.1328125 9.59765625 -8 9 C-6.71520959 7.49410612 -5.42195918 5.99542625 -4.125 4.5 C-3.04605469 3.24703125 -3.04605469 3.24703125 -1.9453125 1.96875 C-1.30335938 1.3190625 -0.66140625 0.669375 0 0 Z " fill="#5B5677" transform="translate(192,275)"/>
<path d="M0 0 C0.66 0.33 1.32 0.66 2 1 C1.52354792 5.28806873 0.34097516 7.26647487 -3 10 C-3.66 10 -4.32 10 -5 10 C-5.36625971 5.48279689 -5.36625971 5.48279689 -3.625 3.1875 C-2 2 -2 2 0 2 C0 1.34 0 0.68 0 0 Z " fill="#343E56" transform="translate(436,266)"/>
<path d="M0 0 C1.09651823 3.41139003 0.94215473 6.20655581 0.5625 9.75 C0.40974609 11.22726562 0.40974609 11.22726562 0.25390625 12.734375 C0.12822266 13.85585938 0.12822266 13.85585938 0 15 C-0.66 15 -1.32 15 -2 15 C-2 17.31 -2 19.62 -2 22 C-2.33 22 -2.66 22 -3 22 C-3.46530864 14.21038876 -2.15721701 7.47321608 0 0 Z " fill="#727B8B" transform="translate(194,331)"/>
<path d="M0 0 C1.17661508 3.67692213 1.14475933 7.1638778 1 11 C0.67 11.33 0.34 11.66 0 12 C-0.07258946 14.18639453 -0.08373783 16.37500389 -0.0625 18.5625 C-0.05347656 19.76003906 -0.04445312 20.95757812 -0.03515625 22.19140625 C-0.02355469 23.11824219 -0.01195312 24.04507812 0 25 C-0.66 24.67 -1.32 24.34 -2 24 C-2.0544207 21.31222198 -2.09387266 18.62556788 -2.125 15.9375 C-2.14175781 15.18533203 -2.15851563 14.43316406 -2.17578125 13.65820312 C-2.21865121 8.70672291 -1.58399375 4.69585549 0 0 Z " fill="#C3CCD4" transform="translate(223,328)"/>
<path d="M0 0 C1.98 0 3.96 0 6 0 C6 4.29 6 8.58 6 13 C5.01 13 4.02 13 3 13 C2.67 14.32 2.34 15.64 2 17 C1.34 16.67 0.68 16.34 0 16 C0.28875 15.49210937 0.5775 14.98421875 0.875 14.4609375 C3.21514494 10.12191875 4.50606482 7.06064817 4 2 C2.68 1.34 1.36 0.68 0 0 Z " fill="#C6CAD5" transform="translate(141,265)"/>
<path d="M0 0 C2.12749429 3.19124144 2.43555602 4.76071575 2.8125 8.5 C2.92207031 9.4590625 3.03164063 10.418125 3.14453125 11.40625 C3 14 3 14 1.51171875 15.84375 C1.01285156 16.2253125 0.51398438 16.606875 0 17 C-1.22329074 13.33012779 -0.88021006 10.66032178 -0.5625 6.8125 C-0.46066406 5.54019531 -0.35882813 4.26789063 -0.25390625 2.95703125 C-0.17011719 1.98121094 -0.08632813 1.00539062 0 0 Z " fill="#5A6276" transform="translate(407,249)"/>
<path d="M0 0 C0.5534764 2.07553648 1 3.84365964 1 6 C1.66 6 2.32 6 3 6 C2.67 6.99 2.34 7.98 2 9 C-0.4375 8.1875 -0.4375 8.1875 -3 7 C-3.33 6.01 -3.66 5.02 -4 4 C-2.68 2.68 -1.36 1.36 0 0 Z " fill="#32385F" transform="translate(415,330)"/>
<path d="M0 0 C0.99 0.33 1.98 0.66 3 1 C3 5.29 3 9.58 3 14 C2.34 14 1.68 14 1 14 C0.67 9.38 0.34 4.76 0 0 Z " fill="#65697E" transform="translate(472,271)"/>
<path d="M0 0 C2.6486859 3.19668988 4.93992341 6.39486597 7 10 C4.36 9.67 1.72 9.34 -1 9 C-0.67 6.03 -0.34 3.06 0 0 Z " fill="#D4DCE6" transform="translate(81,354)"/>
<path d="M0 0 C0.33 0.66 0.66 1.32 1 2 C-0.4375 4.625 -0.4375 4.625 -2 7 C-1.34 7 -0.68 7 0 7 C-0.33 8.98 -0.66 10.96 -1 13 C-1.4125 12.360625 -1.825 11.72125 -2.25 11.0625 C-4.17810487 8.79009069 -5.11424181 8.39803561 -8 8 C-6.50260417 6.79557292 -5.00520833 5.59114583 -3.5078125 4.38671875 C-1.74707893 2.87729455 -1.74707893 2.87729455 0 0 Z " fill="#575A76" transform="translate(303,334)"/>
<path d="M0 0 C0.66 0.33 1.32 0.66 2 1 C2 4.96 2 8.92 2 13 C1.67 11.68 1.34 10.36 1 9 C-0.32 8.67 -1.64 8.34 -3 8 C-2.01 5.36 -1.02 2.72 0 0 Z " fill="#454564" transform="translate(306,329)"/>
<path d="M0 0 C3.96 0 7.92 0 12 0 C9 3 9 3 6.51953125 3.29296875 C5.62621094 3.25816406 4.73289062 3.22335938 3.8125 3.1875 C2.91144531 3.16042969 2.01039062 3.13335937 1.08203125 3.10546875 C0.05142578 3.05326172 0.05142578 3.05326172 -1 3 C-0.67 2.01 -0.34 1.02 0 0 Z " fill="#35365A" transform="translate(101,243)"/>
<path d="M0 0 C0.33 0.99 0.66 1.98 1 3 C-2.40562852 3.77842938 -5.50765756 4.09978121 -9 4 C-9 4.66 -9 5.32 -9 6 C-10.65 6 -12.3 6 -14 6 C-11.84655717 3.59756535 -10.03125235 2.39755056 -7 1.3125 C-6.319375 1.06113281 -5.63875 0.80976563 -4.9375 0.55078125 C-3 0 -3 0 0 0 Z " fill="#5F6980" transform="translate(378,233)"/>
<path d="M0 0 C2.33096248 6.47489578 -0.41350165 12.4223754 -3.16015625 18.27734375 C-3.43730469 18.84582031 -3.71445313 19.41429687 -4 20 C-5.17683393 16.572175 -4.80839977 14.53551019 -3.6875 11.125 C-3.40648437 10.25359375 -3.12546875 9.3821875 -2.8359375 8.484375 C-2.56007812 7.66453125 -2.28421875 6.8446875 -2 6 C-1.608125 4.80375 -1.21625 3.6075 -0.8125 2.375 C-0.544375 1.59125 -0.27625 0.8075 0 0 Z " fill="#B8BFCF" transform="translate(187,262)"/>
<path d="M0 0 C-0.99 0 -1.98 0 -3 0 C-2.67 0.99 -2.34 1.98 -2 3 C-5.75 6 -5.75 6 -8 6 C-9.125 2.25 -9.125 2.25 -8 0 C-5.00463263 -1.13617383 -3.02121511 -0.97110486 0 0 Z " fill="#525671" transform="translate(453,264)"/>
<path d="M0 0 C1.46251533 5.29572084 1.97676554 10.04646891 -0.5 15 C-0.995 15.66 -1.49 16.32 -2 17 C-3.44715727 13.12813552 -2.5441918 10.1767672 -1.5625 6.25 C-1.27503906 5.07953125 -0.98757812 3.9090625 -0.69140625 2.703125 C-0.46324219 1.81109375 -0.23507813 0.9190625 0 0 Z " fill="#6B7189" transform="translate(144,315)"/>
<path d="M0 0 C-0.33 1.32 -0.66 2.64 -1 4 C-1.33 3.34 -1.66 2.68 -2 2 C-2.52078125 2.17402344 -3.0415625 2.34804688 -3.578125 2.52734375 C-6.74079331 3.14457418 -9.54507464 2.85094328 -12.75 2.5625 C-13.92046875 2.46066406 -15.0909375 2.35882813 -16.296875 2.25390625 C-17.63492188 2.12822266 -17.63492188 2.12822266 -19 2 C-19 1.67 -19 1.34 -19 1 C-16.58343806 0.83168225 -14.16676951 0.66528738 -11.75 0.5 C-11.06808594 0.45230469 -10.38617188 0.40460938 -9.68359375 0.35546875 C-6.44268497 0.13521281 -3.2506634 0 0 0 Z " fill="#2B3354" transform="translate(144,267)"/>
<path d="M0 0 C1.94158017 3.51624755 2.18311068 5.9715651 2 10 C1.34 10 0.68 10 0 10 C-0.66 11.65 -1.32 13.3 -2 15 C-3.23922223 11.28233332 -2.57018942 9.56110463 -1.5625 5.8125 C-1.13130859 4.18248047 -1.13130859 4.18248047 -0.69140625 2.51953125 C-0.46324219 1.68808594 -0.23507812 0.85664063 0 0 Z " fill="#606B83" transform="translate(445,283)"/>
<path d="M0 0 C0.33 0.99 0.66 1.98 1 3 C1.66 3.33 2.32 3.66 3 4 C-0.61328125 8.6875 -0.61328125 8.6875 -2 10 C-2.99 10 -3.98 10 -5 10 C-4.38722388 7.03824877 -3.74627478 5.61941217 -2 3 C-1.34 3 -0.68 3 0 3 C0 2.01 0 1.02 0 0 Z " fill="#4D526C" transform="translate(405,265)"/>
<path d="M0 0 C1.18851563 0.00902344 2.37703125 0.01804687 3.6015625 0.02734375 C4.51679688 0.03894531 5.43203125 0.05054688 6.375 0.0625 C3.60457891 2.83292109 1.60966195 2.46046106 -2.25 2.6875 C-3.43851563 2.76226562 -4.62703125 2.83703125 -5.8515625 2.9140625 C-7.22441406 2.98753906 -7.22441406 2.98753906 -8.625 3.0625 C-8.625 2.4025 -8.625 1.7425 -8.625 1.0625 C-5.74084117 -0.37957941 -3.20778472 -0.03144887 0 0 Z " fill="#2F3B51" transform="translate(215.625,265.9375)"/>
<path d="M0 0 C4.29 0.99 8.58 1.98 13 3 C13 3.33 13 3.66 13 4 C11.04196493 4.05389087 9.08351091 4.09274217 7.125 4.125 C6.03445312 4.14820313 4.94390625 4.17140625 3.8203125 4.1953125 C1 4 1 4 -1 2 C-0.67 1.34 -0.34 0.68 0 0 Z " fill="#353B54" transform="translate(146,362)"/>
<path d="M0 0 C0.99 0.33 1.98 0.66 3 1 C2.89171875 1.85271484 2.89171875 1.85271484 2.78125 2.72265625 C2.20416899 7.52364968 1.89714162 12.16565627 2 17 C-0.49118953 13.2632157 -0.2065226 11.25548181 -0.125 6.8125 C-0.10695313 5.54019531 -0.08890625 4.26789063 -0.0703125 2.95703125 C-0.04710937 1.98121094 -0.02390625 1.00539063 0 0 Z " fill="#D2D9ED" transform="translate(262,319)"/>
<path d="M0 0 C0.66 0.33 1.32 0.66 2 1 C1.34 2.32 0.68 3.64 0 5 C-0.66 5 -1.32 5 -2 5 C-2.33 6.32 -2.66 7.64 -3 9 C-4.32 8.34 -5.64 7.68 -7 7 C-4.66666667 4.66666667 -2.33333333 2.33333333 0 0 Z " fill="#575C7D" transform="translate(258,274)"/>
<path d="M0 0 C0.33 0.66 0.66 1.32 1 2 C3.01669827 3.13350534 3.01669827 3.13350534 5 4 C4.34 5.32 3.68 6.64 3 8 C1.35 6.35 -0.3 4.7 -2 3 C-1.34 2.67 -0.68 2.34 0 2 C0 1.34 0 0.68 0 0 Z " fill="#43485D" transform="translate(142,357)"/>
<path d="M0 0 C-0.99 0.495 -0.99 0.495 -2 1 C-1.67 1.99 -1.34 2.98 -1 4 C-2.45880109 3.85892253 -3.91703551 3.71197585 -5.375 3.5625 C-6.59316406 3.44068359 -6.59316406 3.44068359 -7.8359375 3.31640625 C-10 3 -10 3 -12 2 C-10.75579353 1.4654744 -9.50429064 0.94791389 -8.25 0.4375 C-7.55390625 0.14746094 -6.8578125 -0.14257812 -6.140625 -0.44140625 C-3.69987216 -1.07831803 -2.3596345 -0.80248831 0 0 Z " fill="#656885" transform="translate(284,264)"/>
<path d="M0 0 C1.45047396 2.90094791 0.45356803 4.55972596 -0.4375 7.625 C-0.72496094 8.62789063 -1.01242188 9.63078125 -1.30859375 10.6640625 C-1.53675781 11.43492187 -1.76492187 12.20578125 -2 13 C-2.66 13 -3.32 13 -4 13 C-4.6875 11.1875 -4.6875 11.1875 -5 9 C-4.02351983 7.97702078 -3.01868662 6.98095748 -2 6 C-0.79950593 2.89992799 -0.79950593 2.89992799 0 0 Z " fill="#505774" transform="translate(190,249)"/>
<path d="M0 0 C0 0.66 0 1.32 0 2 C-1.86328125 3.5078125 -1.86328125 3.5078125 -4.3125 5.125 C-5.11300781 5.66382813 -5.91351563 6.20265625 -6.73828125 6.7578125 C-9 8 -9 8 -12 8 C-10.71064081 6.85157077 -9.41843421 5.70633773 -8.125 4.5625 C-7.04605469 3.60537109 -7.04605469 3.60537109 -5.9453125 2.62890625 C-3.83529848 0.86208728 -2.76919975 0 0 0 Z " fill="#CCD5E0" transform="translate(387,243)"/>
<path d="M0 0 C0.625 1.875 0.625 1.875 1 4 C-1.51699845 6.51699845 -3.57554146 7.10964078 -7 8 C-9.375 7.625 -9.375 7.625 -11 7 C-9.39125 6.38125 -9.39125 6.38125 -7.75 5.75 C-4.47734926 4.36260851 -2.34482838 2.72000092 0 0 Z " fill="#D1D6E4" transform="translate(226,358)"/>
<path d="M0 0 C1.21236328 0.01353516 1.21236328 0.01353516 2.44921875 0.02734375 C3.37154297 0.04474609 3.37154297 0.04474609 4.3125 0.0625 C2.60421079 2.16883718 1.79101584 3.00051608 -0.94921875 3.35546875 C-1.74972656 3.32066406 -2.55023438 3.28585937 -3.375 3.25 C-4.58736328 3.20939453 -4.58736328 3.20939453 -5.82421875 3.16796875 C-6.74654297 3.11576172 -6.74654297 3.11576172 -7.6875 3.0625 C-7.6875 2.4025 -7.6875 1.7425 -7.6875 1.0625 C-4.80538698 0.10179566 -2.98899956 -0.04331883 0 0 Z " fill="#333A57" transform="translate(457.6875,262.9375)"/>
<path d="M0 0 C0.99 0 1.98 0 3 0 C3.05422947 1.4370809 3.09289723 2.87475462 3.125 4.3125 C3.14820313 5.11300781 3.17140625 5.91351563 3.1953125 6.73828125 C3 9 3 9 1 12 C1 9.03 1 6.06 1 3 C0.34 2.67 -0.32 2.34 -1 2 C-0.67 1.34 -0.34 0.68 0 0 Z " fill="#A5B684" transform="translate(509,219)"/>
<path d="M0 0 C1.98 0.99 3.96 1.98 6 3 C6 3.66 6 4.32 6 5 C6.66 5.33 7.32 5.66 8 6 C5.03 6 2.06 6 -1 6 C-0.67 4.02 -0.34 2.04 0 0 Z " fill="#DFE4E7" transform="translate(141,362)"/>
<path d="M0 0 C3.3 0 6.6 0 10 0 C7.375 4.875 7.375 4.875 4 6 C4 4.68 4 3.36 4 2 C2.68 1.34 1.36 0.68 0 0 Z " fill="#303B57" transform="translate(117,347)"/>
<path d="M0 0 C1.90389849 2.85584773 2.69462177 4.9311762 3.625 8.1875 C4.01558594 9.53908203 4.01558594 9.53908203 4.4140625 10.91796875 C4.60742188 11.60503906 4.80078125 12.29210937 5 13 C4.01 13 3.02 13 2 13 C1.34 11.35 0.68 9.7 0 8 C0.33 7.67 0.66 7.34 1 7 C0.71269945 4.66055264 0.38063221 2.3260857 0 0 Z " fill="#C6CBD5" transform="translate(320,328)"/>
<path d="M0 0 C0.99 0.33 1.98 0.66 3 1 C2.01 4.3 1.02 7.6 0 11 C-0.33 11 -0.66 11 -1 11 C-1.02688151 9.35425434 -1.04634123 7.70838587 -1.0625 6.0625 C-1.07410156 5.14597656 -1.08570313 4.22945313 -1.09765625 3.28515625 C-1 1 -1 1 0 0 Z " fill="#464F69" transform="translate(173,310)"/>
<path d="M0 0 C1.65 0 3.3 0 5 0 C4.49396008 2.16874252 4.00016187 3.99967627 3 6 C2.01 6 1.02 6 0 6 C0 4.02 0 2.04 0 0 Z " fill="#EBF3F8" transform="translate(320,283)"/>
<path d="M0 0 C0.66 0.33 1.32 0.66 2 1 C0.75 3 0.75 3 -1 5 C-2.32 5 -3.64 5 -5 5 C-5.33 5.99 -5.66 6.98 -6 8 C-6.99 7.67 -7.98 7.34 -9 7 C-6.03 4.69 -3.06 2.38 0 0 Z " fill="#9DB689" transform="translate(471,224)"/>
<path d="M0 0 C0.66 0 1.32 0 2 0 C2.66 1.65 3.32 3.3 4 5 C3.01 5.66 2.02 6.32 1 7 C1 6.34 1 5.68 1 5 C0.01 5 -0.98 5 -2 5 C-1.125 1.125 -1.125 1.125 0 0 Z " fill="#404177" transform="translate(408,347)"/>
<path d="M0 0 C1.10191901 4.40767604 0.58706842 5.8922935 -1 10 C-1.33 9.34 -1.66 8.68 -2 8 C-3.32 8.33 -4.64 8.66 -6 9 C-4.02 6.03 -2.04 3.06 0 0 Z " fill="#C8CED4" transform="translate(438,268)"/>
<path d="M0 0 C2.9375 0.75 2.9375 0.75 6 2 C6.875 4.125 6.875 4.125 7 6 C7.66 6 8.32 6 9 6 C8.67 6.99 8.34 7.98 8 9 C7.34 8.67 6.68 8.34 6 8 C5.375 5.4375 5.375 5.4375 5 3 C2.03 2.505 2.03 2.505 -1 2 C-0.67 1.34 -0.34 0.68 0 0 Z " fill="#2F3956" transform="translate(289,269)"/>
<path d="M0 0 C0 0.66 0 1.32 0 2 C-2.64 2.33 -5.28 2.66 -8 3 C-7.67 2.01 -7.34 1.02 -7 0 C-4.05610218 -1.17755913 -3.10046087 -1.03348696 0 0 Z " fill="#323D54" transform="translate(385,364)"/>
<path d="M0 0 C2.8992226 0.46761655 3.86675182 0.86675182 6 3 C2.535 4.485 2.535 4.485 -1 6 C-1.042721 4.33388095 -1.04063832 2.66617115 -1 1 C-0.67 0.67 -0.34 0.34 0 0 Z " fill="#42466E" transform="translate(395,358)"/>
<path d="M0 0 C0.66 0.33 1.32 0.66 2 1 C1.67 1.66 1.34 2.32 1 3 C1.66 3.33 2.32 3.66 3 4 C-1.05431692 5.15837626 -3.21812119 4.83691257 -7 3 C-4.66785852 1.79371992 -2.50357861 0.8345262 0 0 Z " fill="#47556B" transform="translate(397,340)"/>
<path d="M0 0 C0.99 0.33 1.98 0.66 3 1 C1.515 4.465 1.515 4.465 0 8 C-0.66 7.34 -1.32 6.68 -2 6 C-1.64644564 3.73725212 -1.02455574 2.04911148 0 0 Z " fill="#434769" transform="translate(304,342)"/>
<path d="M0 0 C0.33 0 0.66 0 1 0 C1.36923077 5.41538462 1.36923077 5.41538462 -0.5 8.375 C-0.995 8.91125 -1.49 9.4475 -2 10 C-2.33 8.02 -2.66 6.04 -3 4 C-2.01 4 -1.02 4 0 4 C0 2.68 0 1.36 0 0 Z " fill="#2F3C54" transform="translate(444,299)"/>
<path d="M0 0 C0.66 0.33 1.32 0.66 2 1 C1.814375 1.61875 1.62875 2.2375 1.4375 2.875 C0.76313824 5.04160178 0.76313824 5.04160178 2 7 C-0.97 7 -3.94 7 -7 7 C-6.34 6.34 -5.68 5.68 -5 5 C-3.68 5 -2.36 5 -1 5 C-0.67 3.35 -0.34 1.7 0 0 Z " fill="#E4F1DC" transform="translate(455,238)"/>
<path d="M0 0 C0.66 0 1.32 0 2 0 C2 1.98 2 3.96 2 6 C1.67 5.01 1.34 4.02 1 3 C-0.32 3.99 -1.64 4.98 -3 6 C-4.32 5.34 -5.64 4.68 -7 4 C-6.030625 3.525625 -5.06125 3.05125 -4.0625 2.5625 C-1.19522563 1.29806053 -1.19522563 1.29806053 0 0 Z " fill="#81AC61" transform="translate(508,222)"/>
<path d="M0 0 C0 3.38023517 -0.87455622 5.83468937 -2 9 C-5 9 -5 9 -7 8 C-4.69 5.36 -2.38 2.72 0 0 Z " fill="#D4DCEA" transform="translate(304,349)"/>
<path d="M0 0 C0.33 0 0.66 0 1 0 C1.33 4.62 1.66 9.24 2 14 C1.01 14 0.02 14 -1 14 C-0.67 9.38 -0.34 4.76 0 0 Z " fill="#444C65" transform="translate(460,338)"/>
<path d="M0 0 C0.99 0 1.98 0 3 0 C2.88601335 1.62580966 2.75844341 3.25067157 2.625 4.875 C2.52058594 6.23238281 2.52058594 6.23238281 2.4140625 7.6171875 C2 10 2 10 0 12 C0 8.04 0 4.08 0 0 Z " fill="#CACEDA" transform="translate(81,314)"/>
<path d="M0 0 C-0.928125 0.45375 -1.85625 0.9075 -2.8125 1.375 C-6.03921389 2.9421633 -6.03921389 2.9421633 -9 5 C-9 4.34 -9 3.68 -9 3 C-9.66 2.67 -10.32 2.34 -11 2 C-3.57142857 -1.57142857 -3.57142857 -1.57142857 0 0 Z " fill="#B6E395" transform="translate(496,238)"/>
<path d="M0 0 C0.99 0 1.98 0 3 0 C3 2.97 3 5.94 3 9 C2.34 8.67 1.68 8.34 1 8 C0.40644386 5.35139573 0.25790731 2.70802678 0 0 Z " fill="#363A4D" transform="translate(416,326)"/>
<path d="M0 0 C0.99 0.66 1.98 1.32 3 2 C3 2.99 3 3.98 3 5 C0.5 7.1875 0.5 7.1875 -2 9 C-1.125 1.125 -1.125 1.125 0 0 Z " fill="#646681" transform="translate(87,303)"/>
<path d="M0 0 C0.99 0.33 1.98 0.66 3 1 C2.34 3.31 1.68 5.62 1 8 C0.34 8 -0.32 8 -1 8 C-0.67 5.36 -0.34 2.72 0 0 Z " fill="#333B58" transform="translate(175,303)"/>
<path d="M0 0 C1.32789969 2.1871289 2.04752686 3.47720456 1.8125 6.0625 C0.89199398 8.25755282 -0.21596223 9.44866281 -2 11 C-1 3.57142857 -1 3.57142857 0 0 Z " fill="#D5DCE7" transform="translate(357,283)"/>
<path d="M0 0 C1.58246707 -0.08153933 3.16616273 -0.13943557 4.75 -0.1875 C6.07257813 -0.23970703 6.07257813 -0.23970703 7.421875 -0.29296875 C10.44671583 0.05076316 11.75583602 1.00227459 14 3 C13.01 3.33 12.02 3.66 11 4 C9.66666667 3.33333333 8.33333333 2.66666667 7 2 C4.67504723 1.61250787 2.34148732 1.27017161 0 1 C0 0.67 0 0.34 0 0 Z " fill="#697084" transform="translate(170,227)"/>
<path d="M0 0 C0.83449189 3.33796756 1.46019653 6.60694964 2 10 C0.68 10 -0.64 10 -2 10 C-1.34 6.7 -0.68 3.4 0 0 Z " fill="#666884" transform="translate(153,283)"/>
<path d="M0 0 C0.33 0 0.66 0 1 0 C1 3.3 1 6.6 1 10 C0.01 10 -0.98 10 -2 10 C-1.54177532 6.53058454 -1.10868317 3.32604951 0 0 Z " fill="#2E3D54" transform="translate(159,266)"/>
<path d="M0 0 C2.31 0 4.62 0 7 0 C7 0.99 7 1.98 7 3 C4.69 2.67 2.38 2.34 0 2 C0 1.34 0 0.68 0 0 Z " fill="#3D4560" transform="translate(252,363)"/>
<path d="M0 0 C1.33332095 2.6666419 0.67102033 4.16680303 0 7 C-1.65 7.33 -3.3 7.66 -5 8 C-3.35 5.36 -1.7 2.72 0 0 Z " fill="#C0C4D8" transform="translate(415,346)"/>
<path d="M0 0 C0.99 0.33 1.98 0.66 3 1 C3.33 2.98 3.66 4.96 4 7 C3.01 6.67 2.02 6.34 1 6 C0.67 4.02 0.34 2.04 0 0 Z " fill="#313A5B" transform="translate(109,340)"/>
<path d="M0 0 C0.66 0 1.32 0 2 0 C2 2.64 2 5.28 2 8 C1.01 8.33 0.02 8.66 -1 9 C-0.67 6.03 -0.34 3.06 0 0 Z " fill="#384057" transform="translate(198,318)"/>
<path d="M0 0 C0.66 0.33 1.32 0.66 2 1 C0.515 4.465 0.515 4.465 -1 8 C-3 4.25 -3 4.25 -3 2 C-2.01 2 -1.02 2 0 2 C0 1.34 0 0.68 0 0 Z " fill="#575E72" transform="translate(270,286)"/>
<path d="M0 0 C0.99 0.495 0.99 0.495 2 1 C2 1.66 2 2.32 2 3 C3.32 3.66 4.64 4.32 6 5 C4.02 5.66 2.04 6.32 0 7 C0 4.69 0 2.38 0 0 Z " fill="#DBDCEB" transform="translate(400,275)"/>
<path d="M0 0 C1.61949011 2.57213134 2.04408751 3.67669159 1.625 6.75 C1.41875 7.4925 1.2125 8.235 1 9 C0.34 8.67 -0.32 8.34 -1 8 C-0.67 5.36 -0.34 2.72 0 0 Z " fill="#4A566B" transform="translate(156,272)"/>
<path d="M0 0 C-0.33 1.65 -0.66 3.3 -1 5 C-2.98 3.68 -4.96 2.36 -7 1 C-3.375 -1.125 -3.375 -1.125 0 0 Z " fill="#D4DCE1" transform="translate(474,264)"/>
<path d="M0 0 C1.98 0.495 1.98 0.495 4 1 C3.67 2.32 3.34 3.64 3 5 C1.68 4.67 0.36 4.34 -1 4 C-0.67 2.68 -0.34 1.36 0 0 Z " fill="#525465" transform="translate(97,243)"/>
<path d="M0 0 C-3.75 3 -3.75 3 -6 3 C-6 3.66 -6 4.32 -6 5 C-6.99 5.33 -7.98 5.66 -9 6 C-9 5.34 -9 4.68 -9 4 C-8.34 4 -7.68 4 -7 4 C-7 3.01 -7 2.02 -7 1 C-4.53721199 -0.231394 -2.7204945 -0.07159196 0 0 Z " fill="#E2E7F1" transform="translate(364,238)"/>
<path d="M0 0 C0 3 0 3 -2 5.1875 C-2.66 5.785625 -3.32 6.38375 -4 7 C-4.99 6.34 -5.98 5.68 -7 5 C-5.35 4.34 -3.7 3.68 -2 3 C-2 2.34 -2 1.68 -2 1 C-1.34 0.67 -0.68 0.34 0 0 Z " fill="#C4C6D6" transform="translate(172,358)"/>
<path d="M0 0 C0.99 0.66 1.98 1.32 3 2 C0.75 4.0625 0.75 4.0625 -2 6 C-4.3125 5.75 -4.3125 5.75 -6 5 C-5.01 4.67 -4.02 4.34 -3 4 C-1.31461399 2.00334686 -1.31461399 2.00334686 0 0 Z " fill="#697089" transform="translate(119,360)"/>
<path d="M0 0 C0.33 0.99 0.66 1.98 1 3 C1.66 3.33 2.32 3.66 3 4 C1.68 5.32 0.36 6.64 -1 8 C-2 6 -2 6 -1.0625 2.875 C-0.5365625 1.451875 -0.5365625 1.451875 0 0 Z " fill="#4C506B" transform="translate(202,305)"/>
<path d="M0 0 C0.99 0 1.98 0 3 0 C1.8141763 3.37503669 0.72426311 5.64722731 -2 8 C-2 6.68 -2 5.36 -2 4 C-1.34 4 -0.68 4 0 4 C-0.33 3.01 -0.66 2.02 -1 1 C-0.67 0.67 -0.34 0.34 0 0 Z " fill="#525973" transform="translate(314,296)"/>
<path d="M0 0 C0.99 0 1.98 0 3 0 C3.36923077 4.55384615 3.36923077 4.55384615 1.5 6.8125 C1.005 7.204375 0.51 7.59625 0 8 C0 5.36 0 2.72 0 0 Z " fill="#383E57" transform="translate(469,288)"/>
<path d="M0 0 C0.99 0 1.98 0 3 0 C3.33 0.99 3.66 1.98 4 3 C1.69 3.66 -0.62 4.32 -3 5 C-1.125 1.125 -1.125 1.125 0 0 Z " fill="#4C516D" transform="translate(250,282)"/>
<path d="M0 0 C0.99 0 1.98 0 3 0 C2.34 1.65 1.68 3.3 1 5 C-0.32 4.67 -1.64 4.34 -3 4 C-1.6875 2 -1.6875 2 0 0 Z " fill="#4E526A" transform="translate(187,280)"/>
<path d="M0 0 C0.66 0.33 1.32 0.66 2 1 C2 1.99 2 2.98 2 4 C0.125 4.625 0.125 4.625 -2 5 C-2.66 4.34 -3.32 3.68 -4 3 C-2.68 2.01 -1.36 1.02 0 0 Z " fill="#565F73" transform="translate(264,270)"/>
<path d="M0 0 C0.99 0.33 1.98 0.66 3 1 C2.67 1.99 2.34 2.98 2 4 C2.66 4.33 3.32 4.66 4 5 C3.01 6.485 3.01 6.485 2 8 C1.01 5.69 0.02 3.38 -1 1 C-0.67 0.67 -0.34 0.34 0 0 Z " fill="#D2D5E1" transform="translate(231,268)"/>
<path d="M0 0 C1.65 0 3.3 0 5 0 C5 0.99 5 1.98 5 3 C4.01 3.66 3.02 4.32 2 5 C1.34 3.35 0.68 1.7 0 0 Z " fill="#454D6D" transform="translate(371,248)"/>
</svg>
